<?xml version="1.0" encoding="utf-8"?>
<!-- Generator: Adobe Illustrator 21.0.0, SVG Export Plug-In . SVG Version: 6.00 Build 0)  -->
<svg version="1.1" id="Layer_1" xmlns="http://www.w3.org/2000/svg" xmlns:xlink="http://www.w3.org/1999/xlink" x="0px" y="0px"
	 viewBox="0 0 319.5 30" enable-background="new 0 0 319.5 30" xml:space="preserve">
<circle fill="#FEAD00" cx="15" cy="15" r="15"/>
<g>
	<path fill="#FFFFFF" d="M39.5,14.1c0.4,0.1,0.7,0.4,1,0.7c0.2,0.3,0.3,0.6,0.4,0.9c0.1,0.3,0.1,0.7,0.1,1c0,0.8-0.2,1.4-0.5,1.9
		c-0.4,0.7-1.1,1.1-1.9,1.1h-2.5v-5.8h2.5C38.9,13.9,39.2,14,39.5,14.1z M37.3,14.9v3.8h1.1c0.6,0,1-0.3,1.2-0.8
		c0.1-0.3,0.2-0.7,0.2-1.1c0-0.6-0.1-1-0.3-1.3c-0.2-0.3-0.5-0.5-1.1-0.5H37.3z"/>
	<path fill="#FFFFFF" d="M42.9,14.9h-1.1v-1h1.1V14.9z M41.8,15.4h1.1v4.3h-1.1V15.4z"/>
	<path fill="#FFFFFF" d="M46.6,15.4h1.2l-1.5,4.3h-1.2l-1.5-4.3h1.2l0.9,3.1L46.6,15.4z"/>
	<path fill="#FFFFFF" d="M51.2,15.5c0.3,0.1,0.5,0.3,0.7,0.6c0.2,0.3,0.3,0.5,0.3,0.9c0,0.2,0,0.5,0,0.8h-3.1c0,0.4,0.2,0.7,0.4,0.9
		c0.2,0.1,0.4,0.2,0.6,0.2c0.3,0,0.5-0.1,0.6-0.2c0.1-0.1,0.2-0.2,0.2-0.3h1.1c0,0.3-0.2,0.5-0.4,0.8c-0.4,0.4-0.9,0.6-1.6,0.6
		c-0.6,0-1.1-0.2-1.5-0.5c-0.4-0.3-0.6-0.9-0.6-1.7c0-0.7,0.2-1.3,0.6-1.7c0.4-0.4,0.9-0.6,1.5-0.6C50.6,15.3,50.9,15.4,51.2,15.5z
		 M49.6,16.5c-0.2,0.2-0.3,0.4-0.3,0.7h1.9c0-0.3-0.1-0.5-0.3-0.7c-0.2-0.2-0.4-0.2-0.7-0.2C49.9,16.2,49.7,16.3,49.6,16.5z"/>
	<path fill="#FFFFFF" d="M55.3,15.3C55.3,15.3,55.3,15.3,55.3,15.3l0.1,1.1c-0.1,0-0.1,0-0.2,0c-0.1,0-0.1,0-0.1,0
		c-0.4,0-0.7,0.1-0.9,0.4c-0.1,0.2-0.1,0.4-0.1,0.8v2h-1.1v-4.3H54v0.7c0.2-0.3,0.3-0.5,0.4-0.6C54.6,15.4,54.9,15.3,55.3,15.3
		C55.2,15.3,55.3,15.3,55.3,15.3z"/>
	<path fill="#FFFFFF" d="M56.9,18.3c0,0.2,0.1,0.3,0.2,0.4c0.1,0.1,0.4,0.2,0.8,0.2c0.2,0,0.4,0,0.5-0.1c0.1-0.1,0.2-0.2,0.2-0.3
		c0-0.1-0.1-0.2-0.2-0.3c-0.1-0.1-0.5-0.2-1.2-0.3c-0.5-0.1-0.8-0.3-1-0.4c-0.2-0.2-0.3-0.4-0.3-0.8c0-0.4,0.2-0.7,0.5-1
		c0.3-0.3,0.7-0.4,1.3-0.4c0.5,0,1,0.1,1.3,0.3c0.3,0.2,0.5,0.6,0.6,1.1h-1.1c0-0.1-0.1-0.3-0.1-0.3c-0.1-0.2-0.3-0.2-0.6-0.2
		c-0.2,0-0.4,0-0.5,0.1C57,16.4,57,16.4,57,16.5c0,0.1,0.1,0.2,0.2,0.3c0.1,0.1,0.5,0.2,1.2,0.3c0.4,0.1,0.8,0.3,1,0.5
		c0.2,0.2,0.3,0.5,0.3,0.8c0,0.4-0.2,0.8-0.5,1c-0.3,0.3-0.8,0.4-1.5,0.4c-0.7,0-1.2-0.1-1.5-0.4c-0.3-0.3-0.5-0.6-0.5-1.1H56.9z"/>
	<path fill="#FFFFFF" d="M61.6,14.9h-1.1v-1h1.1V14.9z M60.5,15.4h1.1v4.3h-1.1V15.4z"/>
	<path fill="#FFFFFF" d="M62.3,16.3v-0.8h0.6v-1.2h1.1v1.2h0.7v0.8h-0.7v2.2c0,0.2,0,0.3,0.1,0.3c0,0,0.2,0.1,0.4,0.1
		c0,0,0.1,0,0.1,0c0,0,0.1,0,0.1,0v0.8l-0.5,0c-0.5,0-0.9-0.1-1.1-0.3c-0.1-0.1-0.2-0.3-0.2-0.6v-2.6H62.3z"/>
	<path fill="#FFFFFF" d="M65.5,20.5l0.1,0c0.1,0,0.2,0,0.3,0c0.1,0,0.2,0,0.2-0.1c0.1,0,0.1-0.1,0.2-0.3c0.1-0.1,0.1-0.2,0.1-0.3
		l-1.6-4.4h1.2l0.9,3.1l0.9-3.1h1.2l-1.5,4.2c-0.3,0.8-0.5,1.3-0.7,1.5c-0.2,0.2-0.5,0.3-1,0.3c-0.1,0-0.2,0-0.2,0
		c-0.1,0-0.2,0-0.3,0V20.5z"/>
</g>
<g>
	<path fill="#FFFFFF" d="M18.5,10.1c0.8,0.3,1.5,0.8,2,1.5c0.4,0.6,0.7,1.2,0.8,1.9c0.1,0.7,0.2,1.3,0.2,1.9c0,1.5-0.3,2.8-0.9,3.9
		c-0.8,1.4-2.1,2.1-3.9,2.1h-5V9.8h5C17.4,9.9,18,9.9,18.5,10.1z M14,11.8v7.5h2.2c1.1,0,1.9-0.6,2.4-1.7c0.2-0.6,0.4-1.3,0.4-2.2
		c0-1.2-0.2-2.1-0.6-2.7c-0.4-0.6-1.1-0.9-2.2-0.9H14z"/>
</g>
<circle fill="#D0600E" cx="90.3" cy="15" r="15"/>
<g>
	<path fill="#FFFFFF" d="M113.1,13.9h1.4l2,5.8h-1.3l-0.4-1.2h-2.1l-0.4,1.2H111L113.1,13.9z M113,17.5h1.5l-0.7-2.3L113,17.5z"/>
	<path fill="#FFFFFF" d="M116.7,16.3v-0.8h0.6v-1.2h1.1v1.2h0.7v0.8h-0.7v2.2c0,0.2,0,0.3,0.1,0.3c0,0,0.2,0.1,0.4,0.1
		c0,0,0.1,0,0.1,0c0,0,0.1,0,0.1,0v0.8l-0.5,0c-0.5,0-0.9-0.1-1.1-0.3c-0.1-0.1-0.2-0.3-0.2-0.6v-2.6H116.7z"/>
	<path fill="#FFFFFF" d="M119.3,16.3v-0.8h0.6v-1.2h1.1v1.2h0.7v0.8H121v2.2c0,0.2,0,0.3,0.1,0.3c0,0,0.2,0.1,0.4,0.1
		c0,0,0.1,0,0.1,0c0,0,0.1,0,0.1,0v0.8l-0.5,0c-0.5,0-0.9-0.1-1.1-0.3c-0.1-0.1-0.2-0.3-0.2-0.6v-2.6H119.3z"/>
	<path fill="#FFFFFF" d="M123.6,14.9h-1.1v-1h1.1V14.9z M122.5,15.4h1.1v4.3h-1.1V15.4z"/>
	<path fill="#FFFFFF" d="M124.2,16.3v-0.8h0.6v-1.2h1.1v1.2h0.7v0.8h-0.7v2.2c0,0.2,0,0.3,0.1,0.3c0,0,0.2,0.1,0.4,0.1
		c0,0,0.1,0,0.1,0c0,0,0.1,0,0.1,0v0.8l-0.5,0c-0.5,0-0.9-0.1-1.1-0.3c-0.1-0.1-0.2-0.3-0.2-0.6v-2.6H124.2z"/>
	<path fill="#FFFFFF" d="M128.4,15.4V18c0,0.2,0,0.4,0.1,0.5c0.1,0.2,0.3,0.3,0.6,0.3c0.4,0,0.6-0.2,0.8-0.5
		c0.1-0.2,0.1-0.4,0.1-0.7v-2.3h1.1v4.3h-1.1v-0.6c0,0,0,0.1-0.1,0.1s-0.1,0.1-0.1,0.2c-0.2,0.2-0.3,0.3-0.5,0.3
		c-0.2,0.1-0.4,0.1-0.6,0.1c-0.6,0-1.1-0.2-1.3-0.7c-0.1-0.3-0.2-0.6-0.2-1.1v-2.6H128.4z"/>
	<path fill="#FFFFFF" d="M134.5,15.5c0.2,0.1,0.4,0.3,0.5,0.5v-2h1.1v5.7H135v-0.6c-0.2,0.3-0.3,0.4-0.5,0.6
		c-0.2,0.1-0.5,0.2-0.8,0.2c-0.5,0-0.9-0.2-1.3-0.6c-0.3-0.4-0.5-0.9-0.5-1.5c0-0.7,0.2-1.3,0.5-1.7c0.3-0.4,0.8-0.6,1.3-0.6
		C134,15.3,134.3,15.4,134.5,15.5z M134.7,18.5c0.2-0.2,0.2-0.5,0.2-0.9c0-0.5-0.1-0.9-0.4-1.1c-0.2-0.1-0.3-0.2-0.6-0.2
		c-0.3,0-0.6,0.1-0.7,0.4c-0.2,0.2-0.2,0.6-0.2,0.9c0,0.4,0.1,0.7,0.2,0.9c0.2,0.2,0.4,0.4,0.7,0.4
		C134.3,18.9,134.6,18.8,134.7,18.5z"/>
	<path fill="#FFFFFF" d="M139.9,15.5c0.3,0.1,0.5,0.3,0.7,0.6c0.2,0.3,0.3,0.5,0.3,0.9c0,0.2,0,0.5,0,0.8h-3.1
		c0,0.4,0.2,0.7,0.4,0.9c0.2,0.1,0.4,0.2,0.6,0.2c0.3,0,0.5-0.1,0.6-0.2c0.1-0.1,0.2-0.2,0.2-0.3h1.1c0,0.3-0.2,0.5-0.4,0.8
		c-0.4,0.4-0.9,0.6-1.6,0.6c-0.6,0-1.1-0.2-1.5-0.5c-0.4-0.3-0.6-0.9-0.6-1.7c0-0.7,0.2-1.3,0.6-1.7c0.4-0.4,0.9-0.6,1.5-0.6
		C139.2,15.3,139.6,15.4,139.9,15.5z M138.2,16.5c-0.2,0.2-0.3,0.4-0.3,0.7h1.9c0-0.3-0.1-0.5-0.3-0.7c-0.2-0.2-0.4-0.2-0.7-0.2
		C138.6,16.2,138.4,16.3,138.2,16.5z"/>
</g>
<g>
	<path fill="#FFFFFF" d="M89.3,9.8h2.7l4.1,11.5h-2.6L92.8,19h-4.2l-0.8,2.4h-2.5L89.3,9.8z M89.2,17h2.9l-1.5-4.5L89.2,17z"/>
</g>
<circle fill="#C74414" cx="162.3" cy="15" r="15"/>
<g>
	<path fill="#FFFFFF" d="M187.1,14.1c0.2,0.1,0.4,0.2,0.5,0.4c0.1,0.1,0.2,0.3,0.3,0.5c0.1,0.2,0.1,0.4,0.1,0.6
		c0,0.3-0.1,0.5-0.2,0.8c-0.1,0.3-0.4,0.5-0.7,0.6c0.3,0.1,0.5,0.3,0.6,0.5c0.1,0.2,0.2,0.5,0.2,0.9v0.4c0,0.3,0,0.4,0,0.5
		c0,0.1,0.1,0.3,0.2,0.3v0.1h-1.3c0-0.1-0.1-0.2-0.1-0.3c0-0.2,0-0.3-0.1-0.5l0-0.5c0-0.4-0.1-0.6-0.2-0.7c-0.1-0.1-0.4-0.2-0.7-0.2
		h-1.2v2.3h-1.2v-5.8h2.8C186.6,13.9,186.9,14,187.1,14.1z M184.6,14.9v1.5h1.3c0.3,0,0.4,0,0.6-0.1c0.2-0.1,0.3-0.3,0.3-0.6
		c0-0.3-0.1-0.6-0.3-0.7c-0.1-0.1-0.3-0.1-0.6-0.1H184.6z"/>
	<path fill="#FFFFFF" d="M191.9,15.5c0.3,0.1,0.5,0.3,0.7,0.6c0.2,0.3,0.3,0.5,0.3,0.9c0,0.2,0,0.5,0,0.8h-3.1
		c0,0.4,0.2,0.7,0.4,0.9c0.2,0.1,0.4,0.2,0.6,0.2c0.3,0,0.5-0.1,0.6-0.2c0.1-0.1,0.2-0.2,0.2-0.3h1.1c0,0.3-0.2,0.5-0.4,0.8
		c-0.4,0.4-0.9,0.6-1.6,0.6c-0.6,0-1.1-0.2-1.5-0.5c-0.4-0.3-0.6-0.9-0.6-1.7c0-0.7,0.2-1.3,0.6-1.7c0.4-0.4,0.9-0.6,1.5-0.6
		C191.3,15.3,191.6,15.4,191.9,15.5z M190.2,16.5c-0.2,0.2-0.3,0.4-0.3,0.7h1.9c0-0.3-0.1-0.5-0.3-0.7s-0.4-0.2-0.7-0.2
		C190.6,16.2,190.4,16.3,190.2,16.5z"/>
	<path fill="#FFFFFF" d="M194.4,18.3c0,0.2,0.1,0.3,0.2,0.4c0.1,0.1,0.4,0.2,0.8,0.2c0.2,0,0.4,0,0.5-0.1c0.1-0.1,0.2-0.2,0.2-0.3
		c0-0.1-0.1-0.2-0.2-0.3c-0.1-0.1-0.5-0.2-1.2-0.3c-0.5-0.1-0.8-0.3-1-0.4c-0.2-0.2-0.3-0.4-0.3-0.8c0-0.4,0.2-0.7,0.5-1
		c0.3-0.3,0.7-0.4,1.3-0.4c0.5,0,1,0.1,1.3,0.3c0.3,0.2,0.5,0.6,0.6,1.1H196c0-0.1-0.1-0.3-0.1-0.3c-0.1-0.2-0.3-0.2-0.6-0.2
		c-0.2,0-0.4,0-0.5,0.1c-0.1,0.1-0.2,0.2-0.2,0.3c0,0.1,0.1,0.2,0.2,0.3c0.1,0.1,0.5,0.2,1.2,0.3c0.4,0.1,0.8,0.3,1,0.5
		c0.2,0.2,0.3,0.5,0.3,0.8c0,0.4-0.2,0.8-0.5,1c-0.3,0.3-0.8,0.4-1.5,0.4c-0.7,0-1.2-0.1-1.5-0.4c-0.3-0.3-0.5-0.6-0.5-1.1H194.4z"
		/>
	<path fill="#FFFFFF" d="M201.6,15.9c0.3,0.4,0.5,0.9,0.5,1.6c0,0.8-0.2,1.3-0.5,1.7c-0.3,0.4-0.8,0.6-1.3,0.6
		c-0.3,0-0.6-0.1-0.8-0.3c-0.1-0.1-0.2-0.2-0.4-0.4v2.2H198v-5.9h1.1v0.6c0.1-0.2,0.2-0.3,0.4-0.4c0.2-0.2,0.5-0.3,0.9-0.3
		C200.8,15.3,201.2,15.5,201.6,15.9z M200.7,16.7c-0.2-0.3-0.4-0.4-0.7-0.4c-0.4,0-0.7,0.2-0.8,0.6c-0.1,0.2-0.1,0.5-0.1,0.8
		c0,0.5,0.1,0.8,0.4,1c0.2,0.1,0.3,0.2,0.6,0.2c0.3,0,0.6-0.1,0.7-0.4c0.2-0.2,0.2-0.6,0.2-1C201,17.2,200.9,16.9,200.7,16.7z"/>
	<path fill="#FFFFFF" d="M206.5,19.2c-0.4,0.4-0.9,0.7-1.6,0.7c-0.7,0-1.3-0.2-1.6-0.7c-0.4-0.4-0.5-1-0.5-1.6
		c0-0.6,0.2-1.1,0.5-1.6c0.4-0.5,0.9-0.7,1.6-0.7c0.7,0,1.3,0.2,1.6,0.7c0.4,0.4,0.5,1,0.5,1.6C207,18.2,206.8,18.7,206.5,19.2z
		 M205.6,18.6c0.2-0.2,0.3-0.6,0.3-1s-0.1-0.8-0.3-1c-0.2-0.2-0.4-0.3-0.7-0.3c-0.3,0-0.6,0.1-0.8,0.3c-0.2,0.2-0.3,0.6-0.3,1
		s0.1,0.8,0.3,1c0.2,0.2,0.4,0.3,0.8,0.3C205.1,18.9,205.4,18.8,205.6,18.6z"/>
	<path fill="#FFFFFF" d="M211.2,15.7c0.3,0.2,0.4,0.6,0.4,1.1v2.9h-1.1v-2.6c0-0.2,0-0.4-0.1-0.5c-0.1-0.2-0.3-0.3-0.6-0.3
		c-0.4,0-0.6,0.2-0.8,0.5c-0.1,0.2-0.1,0.4-0.1,0.6v2.3h-1.1v-4.3h1.1v0.6c0.1-0.2,0.3-0.4,0.4-0.5c0.2-0.2,0.5-0.3,0.9-0.3
		C210.6,15.3,210.9,15.5,211.2,15.7z"/>
	<path fill="#FFFFFF" d="M213.5,18.3c0,0.2,0.1,0.3,0.2,0.4c0.1,0.1,0.4,0.2,0.8,0.2c0.2,0,0.4,0,0.5-0.1c0.1-0.1,0.2-0.2,0.2-0.3
		c0-0.1-0.1-0.2-0.2-0.3s-0.5-0.2-1.2-0.3c-0.5-0.1-0.8-0.3-1-0.4c-0.2-0.2-0.3-0.4-0.3-0.8c0-0.4,0.2-0.7,0.5-1
		c0.3-0.3,0.7-0.4,1.3-0.4c0.5,0,1,0.1,1.3,0.3c0.3,0.2,0.5,0.6,0.6,1.1h-1.1c0-0.1-0.1-0.3-0.1-0.3c-0.1-0.2-0.3-0.2-0.6-0.2
		c-0.2,0-0.4,0-0.5,0.1c-0.1,0.1-0.2,0.2-0.2,0.3c0,0.1,0.1,0.2,0.2,0.3c0.1,0.1,0.5,0.2,1.2,0.3c0.4,0.1,0.8,0.3,1,0.5
		c0.2,0.2,0.3,0.5,0.3,0.8c0,0.4-0.2,0.8-0.5,1c-0.3,0.3-0.8,0.4-1.5,0.4c-0.7,0-1.2-0.1-1.5-0.4c-0.3-0.3-0.5-0.6-0.5-1.1H213.5z"
		/>
	<path fill="#FFFFFF" d="M218.3,14.9h-1.1v-1h1.1V14.9z M217.1,15.4h1.1v4.3h-1.1V15.4z"/>
	<path fill="#FFFFFF" d="M223,16c0.3,0.4,0.5,0.9,0.5,1.6c0,0.7-0.2,1.2-0.5,1.6c-0.3,0.4-0.8,0.7-1.3,0.7c-0.4,0-0.6-0.1-0.9-0.2
		c-0.1-0.1-0.3-0.2-0.4-0.4v0.5h-1.1v-5.7h1.1v2c0.1-0.2,0.3-0.3,0.5-0.5c0.2-0.1,0.5-0.2,0.8-0.2C222.2,15.3,222.7,15.5,223,16z
		 M222.1,18.5c0.2-0.2,0.2-0.5,0.2-0.9c0-0.3,0-0.6-0.1-0.7c-0.1-0.4-0.4-0.6-0.8-0.6c-0.4,0-0.7,0.2-0.8,0.6
		c-0.1,0.2-0.1,0.4-0.1,0.8c0,0.4,0.1,0.7,0.2,0.9c0.2,0.2,0.4,0.4,0.7,0.4C221.7,18.9,221.9,18.8,222.1,18.5z"/>
	<path fill="#FFFFFF" d="M225.4,14.9h-1.1v-1h1.1V14.9z M224.2,15.4h1.1v4.3h-1.1V15.4z"/>
	<path fill="#FFFFFF" d="M227.6,19.7h-1.1v-5.8h1.1V19.7z"/>
	<path fill="#FFFFFF" d="M229.8,14.9h-1.1v-1h1.1V14.9z M228.7,15.4h1.1v4.3h-1.1V15.4z"/>
	<path fill="#FFFFFF" d="M230.5,16.3v-0.8h0.6v-1.2h1.1v1.2h0.7v0.8h-0.7v2.2c0,0.2,0,0.3,0.1,0.3c0,0,0.2,0.1,0.4,0.1
		c0,0,0.1,0,0.1,0c0,0,0.1,0,0.1,0v0.8l-0.5,0c-0.5,0-0.9-0.1-1.1-0.3c-0.1-0.1-0.2-0.3-0.2-0.6v-2.6H230.5z"/>
	<path fill="#FFFFFF" d="M233.7,20.5l0.1,0c0.1,0,0.2,0,0.3,0c0.1,0,0.2,0,0.2-0.1c0.1,0,0.1-0.1,0.2-0.3c0.1-0.1,0.1-0.2,0.1-0.3
		l-1.6-4.4h1.2l0.9,3.1l0.9-3.1h1.2l-1.5,4.2c-0.3,0.8-0.5,1.3-0.7,1.5c-0.2,0.2-0.5,0.3-1,0.3c-0.1,0-0.2,0-0.2,0
		c-0.1,0-0.1,0-0.3,0V20.5z"/>
</g>
<g>
	<path fill="#FFFFFF" d="M165.4,10.1c0.4,0.2,0.8,0.5,1.1,0.8c0.2,0.3,0.4,0.6,0.6,1c0.1,0.4,0.2,0.8,0.2,1.2c0,0.5-0.1,1.1-0.4,1.6
		c-0.3,0.5-0.7,0.9-1.4,1.1c0.5,0.2,0.9,0.5,1.1,0.9c0.2,0.4,0.3,1,0.3,1.8v0.8c0,0.5,0,0.9,0.1,1.1c0.1,0.3,0.2,0.5,0.4,0.7v0.3
		h-2.7c-0.1-0.3-0.1-0.5-0.2-0.6c-0.1-0.3-0.1-0.7-0.1-1l0-1.1c0-0.7-0.1-1.2-0.4-1.5c-0.2-0.2-0.7-0.4-1.4-0.4h-2.4v4.5h-2.4V9.8
		h5.5C164.4,9.9,165,10,165.4,10.1z M160.4,11.8v3.1h2.6c0.5,0,0.9-0.1,1.2-0.2c0.5-0.2,0.7-0.7,0.7-1.3c0-0.7-0.2-1.2-0.7-1.4
		c-0.2-0.1-0.6-0.2-1.1-0.2H160.4z"/>
</g>
<circle fill="#A71C1C" cx="259.3" cy="15" r="15"/>
<g>
	<path fill="#FFFFFF" d="M263.6,11.9h-6.1v2.4h5.6v2h-5.6v3h6.4v2.1h-8.7V9.8h8.4V11.9z"/>
</g>
<g>
	<path fill="#FFFFFF" d="M283,15h-3v1.2h2.8v1H280v1.5h3.2v1h-4.4v-5.8h4.2V15z"/>
	<path fill="#FFFFFF" d="M283.6,19.7l1.5-2.2l-1.4-2.1h1.4l0.7,1.2l0.7-1.2h1.3l-1.4,2.1l1.5,2.2h-1.4l-0.7-1.3l-0.7,1.3H283.6z"/>
	<path fill="#FFFFFF" d="M291,17c0-0.2-0.1-0.3-0.2-0.4c-0.1-0.2-0.3-0.3-0.6-0.3c-0.4,0-0.6,0.2-0.8,0.6c-0.1,0.2-0.1,0.5-0.1,0.8
		c0,0.3,0,0.6,0.1,0.8c0.1,0.4,0.4,0.5,0.8,0.5c0.3,0,0.4-0.1,0.6-0.2c0.1-0.1,0.2-0.3,0.2-0.5h1.1c0,0.3-0.1,0.7-0.4,1
		c-0.3,0.5-0.9,0.7-1.6,0.7s-1.2-0.2-1.5-0.6c-0.3-0.4-0.5-0.9-0.5-1.6c0-0.7,0.2-1.3,0.5-1.7c0.4-0.4,0.8-0.6,1.5-0.6
		c0.5,0,1,0.1,1.3,0.4c0.3,0.2,0.5,0.7,0.6,1.3H291z"/>
	<path fill="#FFFFFF" d="M295.7,15.5c0.3,0.1,0.5,0.3,0.7,0.6c0.2,0.3,0.3,0.5,0.3,0.9c0,0.2,0,0.5,0,0.8h-3.1
		c0,0.4,0.2,0.7,0.4,0.9c0.2,0.1,0.4,0.2,0.6,0.2c0.3,0,0.5-0.1,0.6-0.2c0.1-0.1,0.2-0.2,0.2-0.3h1.1c0,0.3-0.2,0.5-0.4,0.8
		c-0.4,0.4-0.9,0.6-1.6,0.6c-0.6,0-1.1-0.2-1.5-0.5c-0.4-0.3-0.6-0.9-0.6-1.7c0-0.7,0.2-1.3,0.6-1.7c0.4-0.4,0.9-0.6,1.5-0.6
		C295,15.3,295.4,15.4,295.7,15.5z M294,16.5c-0.2,0.2-0.3,0.4-0.3,0.7h1.9c0-0.3-0.1-0.5-0.3-0.7s-0.4-0.2-0.7-0.2
		C294.4,16.2,294.2,16.3,294,16.5z"/>
	<path fill="#FFFFFF" d="M298.5,19.7h-1.1v-5.8h1.1V19.7z"/>
	<path fill="#FFFFFF" d="M300.7,19.7h-1.1v-5.8h1.1V19.7z"/>
	<path fill="#FFFFFF" d="M304.6,15.5c0.3,0.1,0.5,0.3,0.7,0.6c0.2,0.3,0.3,0.5,0.3,0.9c0,0.2,0,0.5,0,0.8h-3.1
		c0,0.4,0.2,0.7,0.4,0.9c0.2,0.1,0.4,0.2,0.6,0.2c0.3,0,0.5-0.1,0.6-0.2c0.1-0.1,0.2-0.2,0.2-0.3h1.1c0,0.3-0.2,0.5-0.4,0.8
		c-0.4,0.4-0.9,0.6-1.6,0.6c-0.6,0-1.1-0.2-1.5-0.5c-0.4-0.3-0.6-0.9-0.6-1.7c0-0.7,0.2-1.3,0.6-1.7c0.4-0.4,0.9-0.6,1.5-0.6
		C303.9,15.3,304.3,15.4,304.6,15.5z M302.9,16.5c-0.2,0.2-0.3,0.4-0.3,0.7h1.9c0-0.3-0.1-0.5-0.3-0.7s-0.4-0.2-0.7-0.2
		C303.3,16.2,303.1,16.3,302.9,16.5z"/>
	<path fill="#FFFFFF" d="M309.7,15.7c0.3,0.2,0.4,0.6,0.4,1.1v2.9H309v-2.6c0-0.2,0-0.4-0.1-0.5c-0.1-0.2-0.3-0.3-0.6-0.3
		c-0.4,0-0.6,0.2-0.8,0.5c-0.1,0.2-0.1,0.4-0.1,0.6v2.3h-1.1v-4.3h1.1v0.6c0.1-0.2,0.3-0.4,0.4-0.5c0.2-0.2,0.5-0.3,0.9-0.3
		C309,15.3,309.4,15.5,309.7,15.7z"/>
	<path fill="#FFFFFF" d="M313.7,17c0-0.2-0.1-0.3-0.2-0.4c-0.1-0.2-0.3-0.3-0.6-0.3c-0.4,0-0.6,0.2-0.8,0.6
		c-0.1,0.2-0.1,0.5-0.1,0.8c0,0.3,0,0.6,0.1,0.8c0.1,0.4,0.4,0.5,0.8,0.5c0.3,0,0.4-0.1,0.6-0.2c0.1-0.1,0.2-0.3,0.2-0.5h1.1
		c0,0.3-0.1,0.7-0.4,1c-0.3,0.5-0.9,0.7-1.6,0.7s-1.2-0.2-1.5-0.6c-0.3-0.4-0.5-0.9-0.5-1.6c0-0.7,0.2-1.3,0.5-1.7
		c0.4-0.4,0.8-0.6,1.5-0.6c0.5,0,1,0.1,1.3,0.4c0.3,0.2,0.5,0.7,0.6,1.3H313.7z"/>
	<path fill="#FFFFFF" d="M318.4,15.5c0.3,0.1,0.5,0.3,0.7,0.6c0.2,0.3,0.3,0.5,0.3,0.9c0,0.2,0,0.5,0,0.8h-3.1
		c0,0.4,0.2,0.7,0.4,0.9c0.2,0.1,0.4,0.2,0.6,0.2c0.3,0,0.5-0.1,0.6-0.2c0.1-0.1,0.2-0.2,0.2-0.3h1.1c0,0.3-0.2,0.5-0.4,0.8
		c-0.4,0.4-0.9,0.6-1.6,0.6c-0.6,0-1.1-0.2-1.5-0.5c-0.4-0.3-0.6-0.9-0.6-1.7c0-0.7,0.2-1.3,0.6-1.7c0.4-0.4,0.9-0.6,1.5-0.6
		C317.7,15.3,318.1,15.4,318.4,15.5z M316.7,16.5c-0.2,0.2-0.3,0.4-0.3,0.7h1.9c0-0.3-0.1-0.5-0.3-0.7c-0.2-0.2-0.4-0.2-0.7-0.2
		C317.1,16.2,316.9,16.3,316.7,16.5z"/>
</g>
</svg>
